<svg width="303" height="46" viewBox="0 0 303 46" fill="none" xmlns="http://www.w3.org/2000/svg">
<rect x="174" width="129" height="46" rx="4.50203" fill="white"/>
<path d="M204.48 23.6C206.107 23.9467 207.413 24.76 208.4 26.04C209.387 27.2933 209.88 28.7333 209.88 30.36C209.88 32.7067 209.053 34.5733 207.4 35.96C205.773 37.32 203.493 38 200.56 38H187.48V9.92H200.12C202.973 9.92 205.2 10.5733 206.8 11.88C208.427 13.1867 209.24 14.96 209.24 17.2C209.24 18.8533 208.8 20.2267 207.92 21.32C207.067 22.4133 205.92 23.1733 204.48 23.6ZM194.32 21.28H198.8C199.92 21.28 200.773 21.04 201.36 20.56C201.973 20.0533 202.28 19.32 202.28 18.36C202.28 17.4 201.973 16.6667 201.36 16.16C200.773 15.6533 199.92 15.4 198.8 15.4H194.32V21.28ZM199.36 32.48C200.507 32.48 201.387 32.2267 202 31.72C202.64 31.1867 202.96 30.4267 202.96 29.44C202.96 28.4533 202.627 27.68 201.96 27.12C201.32 26.56 200.427 26.28 199.28 26.28H194.32V32.48H199.36ZM220.687 32.72H229.647V38H213.847V9.92H220.687V32.72ZM246.19 38.28C243.55 38.28 241.123 37.6667 238.91 36.44C236.723 35.2133 234.976 33.5067 233.67 31.32C232.39 29.1067 231.75 26.6267 231.75 23.88C231.75 21.1333 232.39 18.6667 233.67 16.48C234.976 14.2933 236.723 12.5867 238.91 11.36C241.123 10.1333 243.55 9.52 246.19 9.52C248.83 9.52 251.243 10.1333 253.43 11.36C255.643 12.5867 257.376 14.2933 258.63 16.48C259.91 18.6667 260.55 21.1333 260.55 23.88C260.55 26.6267 259.91 29.1067 258.63 31.32C257.35 33.5067 255.616 35.2133 253.43 36.44C251.243 37.6667 248.83 38.28 246.19 38.28ZM246.19 32.04C248.43 32.04 250.216 31.2933 251.55 29.8C252.91 28.3067 253.59 26.3333 253.59 23.88C253.59 21.4 252.91 19.4267 251.55 17.96C250.216 16.4667 248.43 15.72 246.19 15.72C243.923 15.72 242.11 16.4533 240.75 17.92C239.416 19.3867 238.75 21.3733 238.75 23.88C238.75 26.36 239.416 28.3467 240.75 29.84C242.11 31.3067 243.923 32.04 246.19 32.04ZM282.995 18.8C282.488 17.8667 281.755 17.16 280.795 16.68C279.862 16.1733 278.755 15.92 277.475 15.92C275.262 15.92 273.488 16.6533 272.155 18.12C270.822 19.56 270.155 21.4933 270.155 23.92C270.155 26.5067 270.848 28.5333 272.235 30C273.648 31.44 275.582 32.16 278.035 32.16C279.715 32.16 281.128 31.7333 282.275 30.88C283.448 30.0267 284.302 28.8 284.835 27.2H276.155V22.16H291.035V28.52C290.528 30.2267 289.662 31.8133 288.435 33.28C287.235 34.7467 285.702 35.9333 283.835 36.84C281.968 37.7467 279.862 38.2 277.515 38.2C274.742 38.2 272.262 37.6 270.075 36.4C267.915 35.1733 266.222 33.48 264.995 31.32C263.795 29.16 263.195 26.6933 263.195 23.92C263.195 21.1467 263.795 18.68 264.995 16.52C266.222 14.3333 267.915 12.64 270.075 11.44C272.235 10.2133 274.702 9.6 277.475 9.6C280.835 9.6 283.662 10.4133 285.955 12.04C288.275 13.6667 289.808 15.92 290.555 18.8H282.995Z" fill="#610000"/>
<rect x="150" y="20" width="17" height="6" rx="1" fill="white"/>
<path d="M19.48 23.6C21.1067 23.9467 22.4133 24.76 23.4 26.04C24.3867 27.2933 24.88 28.7333 24.88 30.36C24.88 32.7067 24.0533 34.5733 22.4 35.96C20.7733 37.32 18.4933 38 15.56 38H2.48V9.92H15.12C17.9733 9.92 20.2 10.5733 21.8 11.88C23.4267 13.1867 24.24 14.96 24.24 17.2C24.24 18.8533 23.8 20.2267 22.92 21.32C22.0667 22.4133 20.92 23.1733 19.48 23.6ZM9.32 21.28H13.8C14.92 21.28 15.7733 21.04 16.36 20.56C16.9733 20.0533 17.28 19.32 17.28 18.36C17.28 17.4 16.9733 16.6667 16.36 16.16C15.7733 15.6533 14.92 15.4 13.8 15.4H9.32V21.28ZM14.36 32.48C15.5067 32.48 16.3867 32.2267 17 31.72C17.64 31.1867 17.96 30.4267 17.96 29.44C17.96 28.4533 17.6267 27.68 16.96 27.12C16.32 26.56 15.4267 26.28 14.28 26.28H9.32V32.48H14.36ZM42.1272 38.28C39.4872 38.28 37.0605 37.6667 34.8472 36.44C32.6605 35.2133 30.9139 33.5067 29.6072 31.32C28.3272 29.1067 27.6872 26.6267 27.6872 23.88C27.6872 21.1333 28.3272 18.6667 29.6072 16.48C30.9139 14.2933 32.6605 12.5867 34.8472 11.36C37.0605 10.1333 39.4872 9.52 42.1272 9.52C44.7672 9.52 47.1805 10.1333 49.3672 11.36C51.5805 12.5867 53.3139 14.2933 54.5672 16.48C55.8472 18.6667 56.4872 21.1333 56.4872 23.88C56.4872 26.6267 55.8472 29.1067 54.5672 31.32C53.2872 33.5067 51.5539 35.2133 49.3672 36.44C47.1805 37.6667 44.7672 38.28 42.1272 38.28ZM42.1272 32.04C44.3672 32.04 46.1539 31.2933 47.4872 29.8C48.8472 28.3067 49.5272 26.3333 49.5272 23.88C49.5272 21.4 48.8472 19.4267 47.4872 17.96C46.1539 16.4667 44.3672 15.72 42.1272 15.72C39.8605 15.72 38.0472 16.4533 36.6872 17.92C35.3539 19.3867 34.6872 21.3733 34.6872 23.88C34.6872 26.36 35.3539 28.3467 36.6872 29.84C38.0472 31.3067 39.8605 32.04 42.1272 32.04ZM74.6125 38L68.7725 27.4H67.1325V38H60.2925V9.92H71.7725C73.9858 9.92 75.8658 10.3067 77.4125 11.08C78.9858 11.8533 80.1592 12.92 80.9325 14.28C81.7058 15.6133 82.0925 17.1067 82.0925 18.76C82.0925 20.6267 81.5592 22.2933 80.4925 23.76C79.4525 25.2267 77.9058 26.2667 75.8525 26.88L82.3325 38H74.6125ZM67.1325 22.56H71.3725C72.6258 22.56 73.5592 22.2533 74.1725 21.64C74.8125 21.0267 75.1325 20.16 75.1325 19.04C75.1325 17.9733 74.8125 17.1333 74.1725 16.52C73.5592 15.9067 72.6258 15.6 71.3725 15.6H67.1325V22.56ZM96.9063 9.92C99.8663 9.92 102.453 10.5067 104.666 11.68C106.88 12.8533 108.586 14.5067 109.786 16.64C111.013 18.7467 111.626 21.1867 111.626 23.96C111.626 26.7067 111.013 29.1467 109.786 31.28C108.586 33.4133 106.866 35.0667 104.626 36.24C102.413 37.4133 99.8396 38 96.9063 38H86.3863V9.92H96.9063ZM96.4663 32.08C99.0529 32.08 101.066 31.3733 102.506 29.96C103.946 28.5467 104.666 26.5467 104.666 23.96C104.666 21.3733 103.946 19.36 102.506 17.92C101.066 16.48 99.0529 15.76 96.4663 15.76H93.2263V32.08H96.4663ZM128.729 38.28C126.089 38.28 123.662 37.6667 121.449 36.44C119.262 35.2133 117.515 33.5067 116.209 31.32C114.929 29.1067 114.289 26.6267 114.289 23.88C114.289 21.1333 114.929 18.6667 116.209 16.48C117.515 14.2933 119.262 12.5867 121.449 11.36C123.662 10.1333 126.089 9.52 128.729 9.52C131.369 9.52 133.782 10.1333 135.969 11.36C138.182 12.5867 139.915 14.2933 141.169 16.48C142.449 18.6667 143.089 21.1333 143.089 23.88C143.089 26.6267 142.449 29.1067 141.169 31.32C139.889 33.5067 138.155 35.2133 135.969 36.44C133.782 37.6667 131.369 38.28 128.729 38.28ZM128.729 32.04C130.969 32.04 132.755 31.2933 134.089 29.8C135.449 28.3067 136.129 26.3333 136.129 23.88C136.129 21.4 135.449 19.4267 134.089 17.96C132.755 16.4667 130.969 15.72 128.729 15.72C126.462 15.72 124.649 16.4533 123.289 17.92C121.955 19.3867 121.289 21.3733 121.289 23.88C121.289 26.36 121.955 28.3467 123.289 29.84C124.649 31.3067 126.462 32.04 128.729 32.04Z" fill="white"/>
</svg>
