<svg width="200" height="200" viewBox="0 0 200 200" fill="none" xmlns="http://www.w3.org/2000/svg">
<rect width="200" height="200" rx="10" fill="#610000"/>
<rect x="26" y="102" width="144" height="46" rx="4.50203" fill="white"/>
<path d="M62.48 125.6C64.1067 125.947 65.4133 126.76 66.4 128.04C67.3867 129.293 67.88 130.733 67.88 132.36C67.88 134.707 67.0533 136.573 65.4 137.96C63.7733 139.32 61.4933 140 58.56 140H45.48V111.92H58.12C60.9733 111.92 63.2 112.573 64.8 113.88C66.4267 115.187 67.24 116.96 67.24 119.2C67.24 120.853 66.8 122.227 65.92 123.32C65.0667 124.413 63.92 125.173 62.48 125.6ZM52.32 123.28H56.8C57.92 123.28 58.7733 123.04 59.36 122.56C59.9733 122.053 60.28 121.32 60.28 120.36C60.28 119.4 59.9733 118.667 59.36 118.16C58.7733 117.653 57.92 117.4 56.8 117.4H52.32V123.28ZM57.36 134.48C58.5067 134.48 59.3867 134.227 60 133.72C60.64 133.187 60.96 132.427 60.96 131.44C60.96 130.453 60.6267 129.68 59.96 129.12C59.32 128.56 58.4267 128.28 57.28 128.28H52.32V134.48H57.36ZM78.6872 134.72H87.6472V140H71.8472V111.92H78.6872V134.72ZM104.19 140.28C101.55 140.28 99.123 139.667 96.9097 138.44C94.723 137.213 92.9764 135.507 91.6697 133.32C90.3897 131.107 89.7497 128.627 89.7497 125.88C89.7497 123.133 90.3897 120.667 91.6697 118.48C92.9764 116.293 94.723 114.587 96.9097 113.36C99.123 112.133 101.55 111.52 104.19 111.52C106.83 111.52 109.243 112.133 111.43 113.36C113.643 114.587 115.376 116.293 116.63 118.48C117.91 120.667 118.55 123.133 118.55 125.88C118.55 128.627 117.91 131.107 116.63 133.32C115.35 135.507 113.616 137.213 111.43 138.44C109.243 139.667 106.83 140.28 104.19 140.28ZM104.19 134.04C106.43 134.04 108.216 133.293 109.55 131.8C110.91 130.307 111.59 128.333 111.59 125.88C111.59 123.4 110.91 121.427 109.55 119.96C108.216 118.467 106.43 117.72 104.19 117.72C101.923 117.72 100.11 118.453 98.7497 119.92C97.4164 121.387 96.7497 123.373 96.7497 125.88C96.7497 128.36 97.4164 130.347 98.7497 131.84C100.11 133.307 101.923 134.04 104.19 134.04ZM140.995 120.8C140.488 119.867 139.755 119.16 138.795 118.68C137.862 118.173 136.755 117.92 135.475 117.92C133.262 117.92 131.488 118.653 130.155 120.12C128.822 121.56 128.155 123.493 128.155 125.92C128.155 128.507 128.848 130.533 130.235 132C131.648 133.44 133.582 134.16 136.035 134.16C137.715 134.16 139.128 133.733 140.275 132.88C141.448 132.027 142.302 130.8 142.835 129.2H134.155V124.16H149.035V130.52C148.528 132.227 147.662 133.813 146.435 135.28C145.235 136.747 143.702 137.933 141.835 138.84C139.968 139.747 137.862 140.2 135.515 140.2C132.742 140.2 130.262 139.6 128.075 138.4C125.915 137.173 124.222 135.48 122.995 133.32C121.795 131.16 121.195 128.693 121.195 125.92C121.195 123.147 121.795 120.68 122.995 118.52C124.222 116.333 125.915 114.64 128.075 113.44C130.235 112.213 132.702 111.6 135.475 111.6C138.835 111.6 141.662 112.413 143.955 114.04C146.275 115.667 147.808 117.92 148.555 120.8H140.995Z" fill="#610000"/>
<path d="M47.273 66.6C48.8996 66.9467 50.2063 67.76 51.193 69.04C52.1796 70.2933 52.673 71.7333 52.673 73.36C52.673 75.7067 51.8463 77.5733 50.193 78.96C48.5663 80.32 46.2863 81 43.353 81H30.273V52.92H42.913C45.7663 52.92 47.993 53.5733 49.593 54.88C51.2196 56.1867 52.033 57.96 52.033 60.2C52.033 61.8533 51.593 63.2267 50.713 64.32C49.8596 65.4133 48.713 66.1733 47.273 66.6ZM37.113 64.28H41.593C42.713 64.28 43.5663 64.04 44.153 63.56C44.7663 63.0533 45.073 62.32 45.073 61.36C45.073 60.4 44.7663 59.6667 44.153 59.16C43.5663 58.6533 42.713 58.4 41.593 58.4H37.113V64.28ZM42.153 75.48C43.2996 75.48 44.1796 75.2267 44.793 74.72C45.433 74.1867 45.753 73.4267 45.753 72.44C45.753 71.4533 45.4196 70.68 44.753 70.12C44.113 69.56 43.2196 69.28 42.073 69.28H37.113V75.48H42.153ZM69.9202 81.28C67.2802 81.28 64.8535 80.6667 62.6402 79.44C60.4535 78.2133 58.7068 76.5067 57.4002 74.32C56.1202 72.1067 55.4802 69.6267 55.4802 66.88C55.4802 64.1333 56.1202 61.6667 57.4002 59.48C58.7068 57.2933 60.4535 55.5867 62.6402 54.36C64.8535 53.1333 67.2802 52.52 69.9202 52.52C72.5602 52.52 74.9735 53.1333 77.1602 54.36C79.3735 55.5867 81.1068 57.2933 82.3602 59.48C83.6402 61.6667 84.2802 64.1333 84.2802 66.88C84.2802 69.6267 83.6402 72.1067 82.3602 74.32C81.0802 76.5067 79.3468 78.2133 77.1602 79.44C74.9735 80.6667 72.5602 81.28 69.9202 81.28ZM69.9202 75.04C72.1602 75.04 73.9468 74.2933 75.2802 72.8C76.6402 71.3067 77.3202 69.3333 77.3202 66.88C77.3202 64.4 76.6402 62.4267 75.2802 60.96C73.9468 59.4667 72.1602 58.72 69.9202 58.72C67.6535 58.72 65.8402 59.4533 64.4802 60.92C63.1468 62.3867 62.4802 64.3733 62.4802 66.88C62.4802 69.36 63.1468 71.3467 64.4802 72.84C65.8402 74.3067 67.6535 75.04 69.9202 75.04ZM102.405 81L96.5655 70.4H94.9255V81H88.0855V52.92H99.5655C101.779 52.92 103.659 53.3067 105.205 54.08C106.779 54.8533 107.952 55.92 108.725 57.28C109.499 58.6133 109.885 60.1067 109.885 61.76C109.885 63.6267 109.352 65.2933 108.285 66.76C107.245 68.2267 105.699 69.2667 103.645 69.88L110.125 81H102.405ZM94.9255 65.56H99.1655C100.419 65.56 101.352 65.2533 101.965 64.64C102.605 64.0267 102.925 63.16 102.925 62.04C102.925 60.9733 102.605 60.1333 101.965 59.52C101.352 58.9067 100.419 58.6 99.1655 58.6H94.9255V65.56ZM124.699 52.92C127.659 52.92 130.246 53.5067 132.459 54.68C134.673 55.8533 136.379 57.5067 137.579 59.64C138.806 61.7467 139.419 64.1867 139.419 66.96C139.419 69.7067 138.806 72.1467 137.579 74.28C136.379 76.4133 134.659 78.0667 132.419 79.24C130.206 80.4133 127.633 81 124.699 81H114.179V52.92H124.699ZM124.259 75.08C126.846 75.08 128.859 74.3733 130.299 72.96C131.739 71.5467 132.459 69.5467 132.459 66.96C132.459 64.3733 131.739 62.36 130.299 60.92C128.859 59.48 126.846 58.76 124.259 58.76H121.019V75.08H124.259ZM156.522 81.28C153.882 81.28 151.455 80.6667 149.242 79.44C147.055 78.2133 145.308 76.5067 144.002 74.32C142.722 72.1067 142.082 69.6267 142.082 66.88C142.082 64.1333 142.722 61.6667 144.002 59.48C145.308 57.2933 147.055 55.5867 149.242 54.36C151.455 53.1333 153.882 52.52 156.522 52.52C159.162 52.52 161.575 53.1333 163.762 54.36C165.975 55.5867 167.708 57.2933 168.962 59.48C170.242 61.6667 170.882 64.1333 170.882 66.88C170.882 69.6267 170.242 72.1067 168.962 74.32C167.682 76.5067 165.948 78.2133 163.762 79.44C161.575 80.6667 159.162 81.28 156.522 81.28ZM156.522 75.04C158.762 75.04 160.548 74.2933 161.882 72.8C163.242 71.3067 163.922 69.3333 163.922 66.88C163.922 64.4 163.242 62.4267 161.882 60.96C160.548 59.4667 158.762 58.72 156.522 58.72C154.255 58.72 152.442 59.4533 151.082 60.92C149.748 62.3867 149.082 64.3733 149.082 66.88C149.082 69.36 149.748 71.3467 151.082 72.84C152.442 74.3067 154.255 75.04 156.522 75.04Z" fill="white"/>
</svg>
